# xmcd
#
# Track frame offsets: 
#        150
#        12752
#        25815
#        38028
#        51298
#        65582
#        79078
#        92560
#        106237
#        117770
#        128357
#        141599
#        156918
#        170315
#        183159
#        195572
#        207150
#        219662
#        231930
#        243923
#        257272
#        269766
#        283129
#        295979
#        309809
#
# Disc length: 4262 seconds
#
# Revision: 0
# Processed by: cddbd v1.5.2PL0 Copyright (c) Steve Scherf et al.
# Submitted via: ExactAudioCopy v0.99pb5
#
DISCID=5d10a419
DTITLE=Various Artist - Classic Field Recordings: Landmark Country Sessions f
DTITLE=rom a Lost Era CDB
DYEAR=2010
DGENRE=Country
TTITLE0=One Year Ago Today
TTITLE1=No Deep True Love
TTITLE2=Coupon Song
TTITLE3=Bury Me Out on the Prairie
TTITLE4=Disappointed in Love (I Wish I Had Never Met Sunshine)
TTITLE5=Rocking Alone in an Old Rocking Chair
TTITLE6=Answer to "Disappointed in Love"
TTITLE7=The Cowboy Jack
TTITLE8=When I Was a Baby
TTITLE9=Bungalow Big Enough for Two
TTITLE10=I'll Remember You, Love in My Prayers
TTITLE11=I'm Not Angry with You Darling
TTITLE12=Don't Put a Tax on Beautiful Girls
TTITLE13=I'll Keep on Loving You
TTITLE14=Four or Five Times
TTITLE15=All My Natural Life
TTITLE16=You Are My Sunshine
TTITLE17=Farther Along
TTITLE18=Homecoming Time in Happy Valley
TTITLE19=I'll Never Leave Old Dixieland Again
TTITLE20=Little Blue Eyed Blonde, Goodbye
TTITLE21=It's So Hard to Be Just a Pal to You
TTITLE22=Fourteen Days in Georgia
TTITLE23=Chesapeake Bay
TTITLE24=I Want My Black Baby Back
EXTD=
EXTT0=
EXTT1=
EXTT2=
EXTT3=
EXTT4=
EXTT5=
EXTT6=
EXTT7=
EXTT8=
EXTT9=
EXTT10=
EXTT11=
EXTT12=
EXTT13=
EXTT14=
EXTT15=
EXTT16=
EXTT17=
EXTT18=
EXTT19=
EXTT20=
EXTT21=
EXTT22=
EXTT23=
EXTT24=
PLAYORDER=
